<svg xmlns="http://www.w3.org/2000/svg" width="1200" height="320" viewBox="0 0 1200 320" fill="none">
  <defs>
    <linearGradient id="gradMark" x1="40" y1="40" x2="220" y2="220" gradientUnits="userSpaceOnUse">
      <stop offset="0" stop-color="#2F67A7"/>
      <stop offset="0.55" stop-color="#4F91D7"/>
      <stop offset="1" stop-color="#4DB6AC"/>
    </linearGradient>
    <linearGradient id="gradWord" x1="260" y1="90" x2="980" y2="200" gradientUnits="userSpaceOnUse">
      <stop offset="0" stop-color="#244979"/>
      <stop offset="1" stop-color="#305C92"/>
    </linearGradient>
    <filter id="softGlow" x="-20%" y="-20%" width="140%" height="140%">
      <feGaussianBlur stdDeviation="10" result="blur"/>
      <feColorMatrix in="blur" type="matrix" values="1 0 0 0 0  0 1 0 0 0.9  0 0 1 0 0.9  0 0 0 0.18 0"/>
    </filter>
  </defs>

  <g transform="translate(24 24)">
    <circle cx="120" cy="120" r="88" fill="url(#gradMark)" opacity="0.10"/>
    <g filter="url(#softGlow)">
      <path d="M98 228c-28-14-44-41-44-74 0-53 42-96 96-96 13 0 27 3 39 8-10 4-18 12-24 22-8 12-12 27-12 43 0 37 20 70 50 87-10 7-21 12-33 15-27 7-52 6-72-5z" fill="url(#gradMark)"/>
    </g>
    <path d="M166 44c-17 5-32 18-41 36-10 20-11 44-2 66 8 19 22 33 40 41-26-2-50-16-65-39-27-41-15-96 27-123 13-9 27-13 41-14z" fill="url(#gradMark)"/>
    <path d="M113 202c56 0 94-26 123-86-8 73-59 124-131 124-45 0-84-23-106-58 28 14 65 20 114 20z" fill="url(#gradMark)"/>
    <path d="M214 53l11 20 20 11-20 11-11 20-11-20-20-11 20-11 11-20z" fill="#FFFFFF"/>
  </g>

  <g transform="translate(255 63)">
    <text x="0" y="92" font-size="88" font-family="Inter, Arial, sans-serif" font-weight="700" letter-spacing="-2" fill="url(#gradWord)">Elevionique</text>
    <text x="4" y="138" font-size="22" font-family="Inter, Arial, sans-serif" font-weight="600" letter-spacing="7" fill="#6B7F99">OPTIMAL LIVING</text>
  </g>
</svg>
